<?xml version="1.0" encoding="utf-8"?>
<!-- Generator: Adobe Illustrator 19.0.1, SVG Export Plug-In . SVG Version: 6.00 Build 0)  -->
<svg version="1.1"
	 xmlns="http://www.w3.org/2000/svg" xmlns:xlink="http://www.w3.org/1999/xlink" x="0px" y="0px" viewBox="-349.7 81.9 470 198"
	 style="enable-background:new -349.7 81.9 470 198;" xml:space="preserve">

<g>
	

	<path id="path44_1_" fill="#3D195B" d="M6,212.3l1.2-5.2h10v39.2c0,7.7-2.1,13-7.2,17
		c-3.8,2.9-9,5.1-15.3,5.1c-8.6,0-14.7-2.9-19.6-7.7l6.3-8.7c3.1,2.9,7.2,5.5,12.6,5.5c8.4,0,12.1-4.1,12.1-10.3v-2.9
		c-3.4,3.5-7.4,4.9-11.8,4.9c-11.7,0-20.9-9.5-20.9-21.6c0-12,9.5-21.2,21.2-21.2C-0.8,206.5,3.5,208.8,6,212.3 M-4.1,216.8
		c-6,0-10.7,4.6-10.7,10.9c0,6,4.8,10.7,10.7,10.7s10.7-4.8,10.7-10.7C6.6,221.4,1.8,216.8-4.1,216.8 M-69,148.6
		c-4.8,0-8.7,2.8-9.7,7.2h19C-60.6,151.5-64.4,148.6-69,148.6 M-68.4,181.8c-12.7,0-22.1-8.7-22.1-21.5c0-11.5,8.4-21.8,21.8-21.8
		c10,0,20.2,7.5,20.2,21.5c0,1.1,0,2.5-0.3,4h-30c1.1,4.6,5.2,7.7,10.3,7.7c4.6,0,8.1-1.7,11-4.8l6.9,7.1
		C-55,179.1-61.5,181.8-68.4,181.8 M59,148.6c-4.8,0-8.7,2.8-9.7,7.2h19C67.5,151.5,63.6,148.6,59,148.6 M59.6,181.8
		c-12.7,0-22.1-8.7-22.1-21.5c0-11.5,8.4-21.8,21.8-21.8c10,0,20.2,7.5,20.2,21.5c0,1.1,0,2.5-0.3,4H49.2c1.1,4.6,5.2,7.7,10.3,7.7
		c4.6,0,8.1-1.7,11-4.8l6.9,7.1C73,179.1,66.5,181.8,59.6,181.8 M88.3,216c-4.8,0-8.7,2.8-9.7,7.2h19C96.7,218.9,92.9,216,88.3,216
		 M88.9,249.3c-12.7,0-22.1-8.7-22.1-21.5c0-11.5,8.4-21.8,21.8-21.8c10,0,20.2,7.5,20.2,21.5c0,1.1,0,2.5-0.3,4h-30
		c1.1,4.6,5.2,7.7,10.3,7.7c4.6,0,8.1-1.7,11-4.8l6.9,7.1C102.3,246.5,95.8,249.3,88.9,249.3 M-99.6,216c-4.8,0-8.7,2.8-9.7,7.2h19
		C-91.2,218.9-95,216-99.6,216 M-99,249.3c-12.7,0-22.1-8.7-22.1-21.5c0-11.5,8.4-21.8,21.8-21.8c10,0,20.2,7.5,20.2,21.5
		c0,1.1,0,2.5-0.3,4h-30.1c1.1,4.6,5.2,7.7,10.3,7.7c4.6,0,8.1-1.7,11-4.8l6.9,7.1C-85.7,246.5-92.1,249.3-99,249.3 M-162,248.2
		v-60.9h12.1v49.4h26.4v11.5C-123.6,248.2-162,248.2-162,248.2z M-115.9,180.8v-41.1h9.8l1.2,6c1.8-3.8,5.5-6.4,10.4-6.4
		c1.1,0,2.1,0.2,3.2,0.5v10.9c-1.4-0.3-2.6-0.5-4-0.5c-5.5,0-9.4,3.4-9.4,10v20.7L-115.9,180.8L-115.9,180.8z M84,180.8v-41.1h9.8
		l1.2,6c1.8-3.8,5.5-6.4,10.4-6.4c1.1,0,2.1,0.2,3.2,0.5v10.9c-1.4-0.3-2.6-0.5-4-0.5c-5.5,0-9.3,3.4-9.3,10v20.7L84,180.8L84,180.8
		z M4.8,156.5c0-4.4-2.5-7.2-6.3-7.2c-4.4,0-6.7,2.8-6.7,7.4v24.1h-11.3v-24.2c0-4.4-2.5-7.2-6.3-7.2c-4.4,0-6.7,2.8-6.7,7.4v24.1
		H-44v-41.1h10l1.2,5.4c0,0,2.5-6.4,10.1-6.4c4.8,0,8.7,2,11.5,6.1l0.3,0.5l0.3-0.5c4-5.7,8.9-6.1,12-6.1c8.7,0,14.7,6.6,14.7,15.9
		v26.2H4.8L4.8,156.5L4.8,156.5L4.8,156.5z M27.6,134.2c-4,0-7.1-3.1-7.1-6.9c0-4,3.1-7.1,7.1-7.1s7.1,3.1,7.1,7.1
		C34.6,131.1,31.6,134.2,27.6,134.2 M21.8,139.7h11.3v41.1H21.8V139.7z M-52.6,216.8c-6.1,0-10.7,4.6-10.7,10.9
		c0,6,4.6,10.7,10.7,10.7c6,0,10.6-4.8,10.6-10.7C-42,221.4-46.6,216.8-52.6,216.8 M-54.9,249.3c-10.9,0-20.4-10-20.4-21.6
		c0-11.5,9.5-21.2,20.4-21.2c6.1,0,10.3,2.1,12.7,6l1.2-5.4h10v41.1h-10l-1.2-5.2C-44.6,246.7-49.2,249.3-54.9,249.3 M42.8,249.3
		c-9,0-20.1-4.9-20.1-20.2v-21.9H34v21.2c0,7.1,3.2,10.1,8.7,10.1c5.1,0,8.7-3.5,8.7-10.1v-21.2h11.3v21.9
		C62.9,244.4,51.7,249.3,42.8,249.3 M-149.9,148.7h7.1c6.1,0,10.6-3.4,10.6-9.5c0-6.1-4.4-9.4-10.6-9.4h-7.1
		C-149.9,129.9-149.9,148.7-149.9,148.7z M-162,180.8v-62.4h19.8c12.9,0,22.5,7.7,22.5,20.9c0,13.3-9.5,21.2-22.5,21.2h-7.7v20.4
		H-162z"/>
	<path id="path56"  fill="#3D195B" d="M-205.4,172.9c-4.1,3.4-7.6,5.3-7.6,5.3l0,10.7
		c2.9,3.2,5.8,5.9,8,10.7C-200.8,192.3-201.6,181.7-205.4,172.9 M-208.8,207.9c0,0-0.8-4.4-4.4-8.5l-8.2,0.2c0,0-11,9.2-17.7,9.4
		c0,0,3.7,6.7,5.6,10.2c3.7-0.8,10.2-3.6,12.8-6.6c0,0,1.7,5.4,1.4,11.9C-215.6,222.4-210.5,216.8-208.8,207.9 M-219.3,188.6l0-10.7
		c0,0-4.9-1.5-10.1-5.5c-10.5,1.5-23.1,11.8-23.1,11.8s4.3,7.9,9,16.5C-235.3,201.8-223.2,191.7-219.3,188.6 M-191.4,232.9l-6.7-7.3
		c-1.9,19.6-11.8,36.3-29.9,47.9l-2.8-10.6c-15.4,10.8-41.7,17.9-64.4,5.4c2.8-14,5.3-28.2,0-45.2c-12.5,19-23.6,26.4-23.6,26.4
		c-8.5-13.9-7.7-41.7-5.2-49.9l-14.1,4.3c0-9.4,6.9-29.2,16.9-40.4l-8.8-1.4h0c6-11.9,14.9-22.2,25.9-30l0,0
		c-3.3,5.1-3.3,17.5,6.3,22.3c-4.1-7-4.6-15.6-0.3-20.1c4.3-4.5,11.4-3,16,0.5c-1.4-3.9-5.4-8.8-11.3-9.1h0
		c11.3-5.7,24.1-8.9,37.7-8.9c2.5,0,5.1,0.1,7.5,0.3l0,0c3.9,1.5,9.7,7,12.4,10.4c0,0,0.2-4-2.1-8.8c14.7,3.5,21.7,9.3,24.7,12.2
		c0.6,6.2,2.5,9.9,5,15.8c-4.8-5.2-16.7-13.6-22.5-15.6c0,0-0.5,5.4-2.4,8c-11.4-8-17-10-17-10c-12.5,1.7-20.5,6.5-24.9,10.1
		l3.8,3.2c-7.5,2.3-12.4,8.6-12.4,8.6c0.1,0.1,6.7,1,6.7,1s-0.7,7.7,9.1,12.4c8.4,4.1,20.5-1,31.9,3.5c-7.5-8.4-12.7-12.2-12.7-12.2
		s-3-0.6-5.1-0.6c-2.6,0-6.5,0.5-10.8-1.1c-2-0.8-4.4-2.2-6.3-3.3c0,0,5.3-5.3,12.9-6.4c0,0,6.9,1.9,12.4,5.9
		c3.6-3.5,7.5-3.4,7.5-3.4s-3.8,3.4-2.6,7.6c5.5,4.8,11.4,11.6,11.4,11.6c6.1-3.2,19.2-2.5,21.9,0.6c-3.4-4.3-8.4-8-12.2-11.1
		c-0.5-1.6-4.6-7.3-5.3-7.8c0,0,4,1.2,7.5,4.3c1-1.4,2.9-2.9,5.5-3.5c2.7,2.2,3.1,5.5,3.1,6.1c-1.2,1.4-2.4,2-2.4,2l6.4,6.8l0.6-4.9
		C-189.1,179.1-181,203-191.4,232.9 M-308.3,102.5c8.5,3.8,14,8.6,15,9.4c-0.5-2.2-2.1-12.5-3.1-18.9c5,3.4,16.5,11.2,20.3,13.7
		c1.5-4.6,6.9-19.8,6.9-19.8s9.7,15.3,11.3,17.8c2-2.1,13.6-14.6,16.6-17.8c0.5,7.2,1.2,17.6,1.4,19.1c0.6-0.8,5-6.8,12.4-12.4
		c-3.2,6.2-4.8,14.7-5.4,21.6c-7.3-2-15-3.1-23-3.1c-15.3,0-29.6,3.9-42,10.8C-300,116.2-303.6,107.9-308.3,102.5"/>
</g>
</svg>
